<mxfile host="app.diagrams.net" modified="2023-04-10T13:08:01.088Z" agent="Mozilla/5.0 (Windows NT 10.0; Win64; x64) AppleWebKit/537.36 (KHTML, like Gecko) Chrome/111.0.0.0 Safari/537.36 Edg/111.0.1661.54" etag="qPozB81llHVhjpG1pxrG" version="21.1.5" type="github">
  <diagram id="vP3BxnlYZqfYoiZaRQQY" name="Page-1">
    <mxGraphModel dx="993" dy="1750" grid="1" gridSize="10" guides="1" tooltips="1" connect="1" arrows="1" fold="1" page="1" pageScale="1" pageWidth="827" pageHeight="1169" math="0" shadow="0">
      <root>
        <mxCell id="0" />
        <mxCell id="1" parent="0" />
        <mxCell id="UGYiUCY6pZAxd3xxvu3n-1" value="" style="whiteSpace=wrap;html=1;aspect=fixed;align=left;" parent="1" vertex="1">
          <mxGeometry x="120" y="40" width="520" height="520" as="geometry" />
        </mxCell>
        <mxCell id="UGYiUCY6pZAxd3xxvu3n-2" value="&lt;b&gt;WI-Projekt&lt;/b&gt;" style="text;html=1;strokeColor=none;fillColor=none;align=center;verticalAlign=middle;whiteSpace=wrap;rounded=0;" parent="1" vertex="1">
          <mxGeometry x="120" y="10" width="70" height="30" as="geometry" />
        </mxCell>
        <mxCell id="UGYiUCY6pZAxd3xxvu3n-3" value="" style="endArrow=none;html=1;rounded=0;exitX=0;exitY=0.25;exitDx=0;exitDy=0;entryX=1;entryY=0.25;entryDx=0;entryDy=0;startArrow=none;" parent="1" source="UGYiUCY6pZAxd3xxvu3n-1" target="UGYiUCY6pZAxd3xxvu3n-1" edge="1">
          <mxGeometry width="50" height="50" relative="1" as="geometry">
            <mxPoint x="230" y="137.5" as="sourcePoint" />
            <mxPoint x="440" y="270" as="targetPoint" />
          </mxGeometry>
        </mxCell>
        <mxCell id="UGYiUCY6pZAxd3xxvu3n-4" value="views" style="shape=folder;fontStyle=1;spacingTop=10;tabWidth=40;tabHeight=14;tabPosition=left;html=1;" parent="1" vertex="1">
          <mxGeometry x="320" y="70" width="70" height="50" as="geometry" />
        </mxCell>
        <mxCell id="UGYiUCY6pZAxd3xxvu3n-5" value="control" style="shape=folder;fontStyle=1;spacingTop=10;tabWidth=40;tabHeight=14;tabPosition=left;html=1;" parent="1" vertex="1">
          <mxGeometry x="350" y="210" width="80" height="60" as="geometry" />
        </mxCell>
        <mxCell id="UGYiUCY6pZAxd3xxvu3n-7" value="dtos" style="shape=folder;fontStyle=1;spacingTop=10;tabWidth=40;tabHeight=14;tabPosition=left;html=1;" parent="1" vertex="1">
          <mxGeometry x="160" y="330" width="70" height="50" as="geometry" />
        </mxCell>
        <mxCell id="UGYiUCY6pZAxd3xxvu3n-8" value="entitites" style="shape=folder;fontStyle=1;spacingTop=10;tabWidth=40;tabHeight=14;tabPosition=left;html=1;" parent="1" vertex="1">
          <mxGeometry x="460" y="330" width="70" height="50" as="geometry" />
        </mxCell>
        <mxCell id="UGYiUCY6pZAxd3xxvu3n-10" value="" style="endArrow=none;html=1;rounded=0;exitX=0;exitY=0.5;exitDx=0;exitDy=0;entryX=1;entryY=0.5;entryDx=0;entryDy=0;" parent="1" source="UGYiUCY6pZAxd3xxvu3n-1" target="UGYiUCY6pZAxd3xxvu3n-1" edge="1">
          <mxGeometry width="50" height="50" relative="1" as="geometry">
            <mxPoint x="280" y="630" as="sourcePoint" />
            <mxPoint x="330" y="580" as="targetPoint" />
          </mxGeometry>
        </mxCell>
        <mxCell id="UGYiUCY6pZAxd3xxvu3n-13" value="control.factories" style="shape=folder;fontStyle=1;spacingTop=10;tabWidth=40;tabHeight=14;tabPosition=left;html=1;" parent="1" vertex="1">
          <mxGeometry x="480" y="210" width="120" height="60" as="geometry" />
        </mxCell>
        <mxCell id="UGYiUCY6pZAxd3xxvu3n-15" value="" style="endArrow=none;html=1;rounded=0;exitX=0;exitY=0.75;exitDx=0;exitDy=0;entryX=1;entryY=0.75;entryDx=0;entryDy=0;" parent="1" source="UGYiUCY6pZAxd3xxvu3n-1" target="UGYiUCY6pZAxd3xxvu3n-1" edge="1">
          <mxGeometry width="50" height="50" relative="1" as="geometry">
            <mxPoint x="200" y="500" as="sourcePoint" />
            <mxPoint x="250" y="450" as="targetPoint" />
          </mxGeometry>
        </mxCell>
        <mxCell id="UGYiUCY6pZAxd3xxvu3n-17" value="util" style="shape=folder;fontStyle=1;spacingTop=10;tabWidth=40;tabHeight=14;tabPosition=left;html=1;" parent="1" vertex="1">
          <mxGeometry x="440" y="470" width="70" height="50" as="geometry" />
        </mxCell>
        <mxCell id="UGYiUCY6pZAxd3xxvu3n-20" value="Presentation Layer" style="text;html=1;strokeColor=none;fillColor=none;align=center;verticalAlign=middle;whiteSpace=wrap;rounded=0;" parent="1" vertex="1">
          <mxGeometry x="130" y="40" width="60" height="30" as="geometry" />
        </mxCell>
        <mxCell id="UGYiUCY6pZAxd3xxvu3n-23" value="Application Layer" style="text;html=1;strokeColor=none;fillColor=none;align=center;verticalAlign=middle;whiteSpace=wrap;rounded=0;" parent="1" vertex="1">
          <mxGeometry x="130" y="170" width="60" height="30" as="geometry" />
        </mxCell>
        <mxCell id="UGYiUCY6pZAxd3xxvu3n-24" value="Domain Layer" style="text;html=1;strokeColor=none;fillColor=none;align=center;verticalAlign=middle;whiteSpace=wrap;rounded=0;" parent="1" vertex="1">
          <mxGeometry x="120" y="300" width="60" height="30" as="geometry" />
        </mxCell>
        <mxCell id="UGYiUCY6pZAxd3xxvu3n-26" value="Infrastructure Layer" style="text;html=1;strokeColor=none;fillColor=none;align=center;verticalAlign=middle;whiteSpace=wrap;rounded=0;" parent="1" vertex="1">
          <mxGeometry x="130" y="430" width="60" height="30" as="geometry" />
        </mxCell>
        <mxCell id="UGYiUCY6pZAxd3xxvu3n-27" value="" style="html=1;verticalAlign=bottom;endArrow=open;dashed=1;endSize=8;rounded=0;exitX=0.75;exitY=1;exitDx=0;exitDy=0;exitPerimeter=0;entryX=0;entryY=0;entryDx=60;entryDy=14;entryPerimeter=0;" parent="1" source="UGYiUCY6pZAxd3xxvu3n-4" target="UGYiUCY6pZAxd3xxvu3n-5" edge="1">
          <mxGeometry relative="1" as="geometry">
            <mxPoint x="510" y="120" as="sourcePoint" />
            <mxPoint x="430" y="120" as="targetPoint" />
            <Array as="points">
              <mxPoint x="373" y="150" />
              <mxPoint x="410" y="150" />
            </Array>
          </mxGeometry>
        </mxCell>
        <mxCell id="UGYiUCY6pZAxd3xxvu3n-28" value="" style="html=1;verticalAlign=bottom;endArrow=open;dashed=1;endSize=8;rounded=0;exitX=0.166;exitY=1.076;exitDx=0;exitDy=0;exitPerimeter=0;entryX=0;entryY=0;entryDx=20;entryDy=0;entryPerimeter=0;" parent="1" source="UGYiUCY6pZAxd3xxvu3n-4" target="UGYiUCY6pZAxd3xxvu3n-7" edge="1">
          <mxGeometry relative="1" as="geometry">
            <mxPoint x="330" y="140" as="sourcePoint" />
            <mxPoint x="250" y="140" as="targetPoint" />
            <Array as="points">
              <mxPoint x="332" y="210" />
              <mxPoint x="180" y="210" />
              <mxPoint x="180" y="290" />
            </Array>
          </mxGeometry>
        </mxCell>
        <mxCell id="UGYiUCY6pZAxd3xxvu3n-31" value="" style="html=1;verticalAlign=bottom;endArrow=open;dashed=1;endSize=8;rounded=0;exitX=0;exitY=0;exitDx=80;exitDy=37;exitPerimeter=0;entryX=0;entryY=0;entryDx=0;entryDy=37;entryPerimeter=0;" parent="1" source="UGYiUCY6pZAxd3xxvu3n-5" target="UGYiUCY6pZAxd3xxvu3n-13" edge="1">
          <mxGeometry relative="1" as="geometry">
            <mxPoint x="740" y="30" as="sourcePoint" />
            <mxPoint x="660" y="30" as="targetPoint" />
          </mxGeometry>
        </mxCell>
        <mxCell id="UGYiUCY6pZAxd3xxvu3n-32" value="" style="html=1;verticalAlign=bottom;endArrow=open;dashed=1;endSize=8;rounded=0;exitX=0.25;exitY=1;exitDx=0;exitDy=0;exitPerimeter=0;entryX=0;entryY=0;entryDx=55;entryDy=14;entryPerimeter=0;" parent="1" source="UGYiUCY6pZAxd3xxvu3n-5" target="UGYiUCY6pZAxd3xxvu3n-7" edge="1">
          <mxGeometry relative="1" as="geometry">
            <mxPoint x="380" y="320" as="sourcePoint" />
            <mxPoint x="300" y="320" as="targetPoint" />
            <Array as="points">
              <mxPoint x="370" y="290" />
              <mxPoint x="215" y="290" />
            </Array>
          </mxGeometry>
        </mxCell>
        <mxCell id="UGYiUCY6pZAxd3xxvu3n-46" value="" style="html=1;verticalAlign=bottom;endArrow=open;dashed=1;endSize=8;rounded=0;exitX=0.75;exitY=1;exitDx=0;exitDy=0;exitPerimeter=0;entryX=0;entryY=0;entryDx=0;entryDy=0;entryPerimeter=0;" parent="1" source="UGYiUCY6pZAxd3xxvu3n-5" target="UGYiUCY6pZAxd3xxvu3n-8" edge="1">
          <mxGeometry relative="1" as="geometry">
            <mxPoint x="450" y="320" as="sourcePoint" />
            <mxPoint x="370" y="320" as="targetPoint" />
            <Array as="points">
              <mxPoint x="410" y="330" />
            </Array>
          </mxGeometry>
        </mxCell>
        <mxCell id="UGYiUCY6pZAxd3xxvu3n-52" value="" style="html=1;verticalAlign=bottom;endArrow=open;dashed=1;endSize=8;rounded=0;entryX=0;entryY=0;entryDx=55;entryDy=14;entryPerimeter=0;" parent="1" target="UGYiUCY6pZAxd3xxvu3n-8" edge="1">
          <mxGeometry relative="1" as="geometry">
            <mxPoint x="515" y="270" as="sourcePoint" />
            <mxPoint x="550" y="360" as="targetPoint" />
          </mxGeometry>
        </mxCell>
        <mxCell id="EwRB1USwOQSSy2an0Ai_-1" value="return" style="html=1;verticalAlign=bottom;endArrow=open;dashed=1;endSize=8;edgeStyle=elbowEdgeStyle;elbow=vertical;curved=0;rounded=0;exitX=0.5;exitY=1;exitDx=0;exitDy=0;exitPerimeter=0;entryX=0;entryY=0;entryDx=0;entryDy=32;entryPerimeter=0;" edge="1" parent="1" source="UGYiUCY6pZAxd3xxvu3n-5" target="UGYiUCY6pZAxd3xxvu3n-17">
          <mxGeometry x="-1" y="440" relative="1" as="geometry">
            <mxPoint x="370" y="390" as="sourcePoint" />
            <mxPoint x="290" y="390" as="targetPoint" />
            <Array as="points">
              <mxPoint x="390" y="502" />
            </Array>
            <mxPoint x="410" y="-280" as="offset" />
          </mxGeometry>
        </mxCell>
      </root>
    </mxGraphModel>
  </diagram>
</mxfile>
